<?xml version="1.0" encoding="UTF-8"?>
<svg width="842px" height="788px" viewBox="0 0 842 788" version="1.1" xmlns="http://www.w3.org/2000/svg" xmlns:xlink="http://www.w3.org/1999/xlink">
    <!-- Generator: Sketch 59 (86127) - https://sketch.com -->
    <title>Shape</title>
    <desc>Created with Sketch.</desc>
    <g id="Main-Pages" stroke="none" stroke-width="1" fill="none" fill-rule="evenodd" opacity="0.2">
        <g id="FAQ-V3" transform="translate(-598.000000, -1118.000000)" fill="#FFFFFF" fill-rule="nonzero">
            <g id="Group-17" transform="translate(0.000000, 1080.000000)">
                <path d="M1074.41558,428.820976 L1309,184.263504 L1223.84467,87.7352882 L1201.38341,87.7352882 L1034.13341,262.336375 L867.426432,73 L828.625221,84.0152318 L821.516603,107.495068 L994.937279,303.305308 L978.646694,320.359592 L773.187869,87.7352882 L751.812648,87.7352882 L657.672816,186.147688 L873.35028,430.222036 L640,674.103134 L725.254058,769.375226 L747.91278,769.375226 L969.365998,538.49017 L982.892119,553.805207 L781.036969,763.674361 L789.182261,788.168758 L824.478527,793 L1016.50996,592.068644 L1159.66964,753.770315 L1181.58788,753.770315 L1275.38216,656.227538 L1074.41558,428.820976 Z M1411.91157,178.263866 L1321.78694,76.7305053 L1285.71737,77.7458389 L1275.8623,101.630353 L1342.92607,178.263866 L1105.91157,426.295362 L1323.70868,673.214826 L1249.30288,752.217451 L1259.55215,776.005267 L1295.62172,776.730505 L1397.12897,670.603968 L1178.39563,422.959266 L1411.91157,178.263866 Z" id="Shape" transform="translate(1025.955787, 433.000000) rotate(12.000000) translate(-1025.955787, -433.000000) "></path>
            </g>
        </g>
    </g>
</svg>