<?xml version="1.0" encoding="UTF-8"?>
<svg width="1440px" height="936px" viewBox="0 0 1440 936" version="1.1" xmlns="http://www.w3.org/2000/svg" xmlns:xlink="http://www.w3.org/1999/xlink">
    <!-- Generator: Sketch 56.3 (81716) - https://sketch.com -->
    <title>Combined Shape</title>
    <desc>Created with Sketch.</desc>
    <defs>
        <linearGradient x1="0.25781251%" y1="49.7500002%" x2="101.257813%" y2="49.7500002%" id="linearGradient-1">
            <stop stop-color="#3023AE" offset="0%"></stop>
            <stop stop-color="#53A0FD" offset="47.5247532%"></stop>
            <stop stop-color="#B4EC51" offset="100%"></stop>
        </linearGradient>
    </defs>
    <g id="Finals" stroke="none" stroke-width="1" fill="none" fill-rule="evenodd" opacity="0.2">
        <path d="M-6.88338275e-14,901.662861 L232.137732,659.036262 L246.495926,675.333853 L32.2234572,898.667416 L40.8698151,924.733281 L78.337366,929.874477 L282.181804,716.052127 L434.148094,888.127964 L457.414657,888.127964 L556.978778,784.327213 L343.649548,542.331108 L592.664655,282.083757 L502.270914,179.362657 L478.427927,179.362657 L300.889378,365.165487 L123.927253,163.682008 L82.7391482,175.403936 L75.1932358,200.390149 L259.282056,408.762831 L241.98934,426.911253 L23.8915123,179.362657 L1.20137314,179.362657 L3.10862447e-15,180.621678 L0,0 L1440,0 L1440,935.899582 L0,935.899582 L0,901.662861 Z M0,680.252528 L0,396.095375 L130.215513,543.822055 L-2.84217094e-14,680.252528 Z M703.933054,278.040551 L607.546817,170.230662 L568.971242,171.308761 L558.431468,196.669754 L630.154633,278.040551 L376.673057,541.40471 L609.602073,803.588094 L530.026775,887.474455 L540.988141,912.732772 L579.563716,913.502843 L688.123393,800.815839 L454.193098,537.862385 L703.933054,278.040551 Z" id="Combined-Shape" fill="url(#linearGradient-1)"></path>
    </g>
</svg>