<?xml version="1.0" encoding="UTF-8"?>
<svg width="59px" height="52px" viewBox="0 0 59 52" version="1.1" xmlns="http://www.w3.org/2000/svg" xmlns:xlink="http://www.w3.org/1999/xlink">
    <!-- Generator: Sketch 61.1 (89650) - https://sketch.com -->
    <title>Shape</title>
    <desc>Created with Sketch.</desc>
    <g id="Main-Pages" stroke="none" stroke-width="1" fill="none" fill-rule="evenodd">
        <g id="FAQ-V2" transform="translate(-532.000000, -1623.000000)" fill="#333333" fill-rule="nonzero" stroke="#FFFFFF" stroke-width="3">
            <g id="Group-6" transform="translate(421.000000, 1576.000000)">
                <g id="Content" transform="translate(110.000000, 49.000000)">
                    <g id="chat-outline" transform="translate(5.000000, 0.000000)">
                        <path d="M26.4827586,-1.85806925e-12 C11.9172414,-1.85806925e-12 -3.55271368e-15,9.48082759 -3.55271368e-15,21.1862069 C0.132413793,26.88 2.80717241,32.2295172 7.28275862,35.7517241 C7.28275862,37.3406897 6.17048276,41.4984828 -3.55271368e-15,47.6689655 C6.27641379,47.3776552 12.288,45.0206897 17.1343448,41.0482759 C20.1533793,41.9222069 23.3313103,42.3724138 26.4827586,42.3724138 C41.0482759,42.3724138 52.9655172,32.8915862 52.9655172,21.1862069 C52.9655172,9.48082759 41.0482759,-1.85806925e-12 26.4827586,-1.85806925e-12 M26.4827586,37.0758621 C14.7773793,37.0758621 5.29655172,29.952 5.29655172,21.1862069 C5.29655172,12.4204138 14.7773793,5.29655172 26.4827586,5.29655172 C38.1881379,5.29655172 47.6689655,12.4204138 47.6689655,21.1862069 C47.6689655,29.952 38.1881379,37.0758621 26.4827586,37.0758621 Z" id="Shape"></path>
                    </g>
                </g>
            </g>
        </g>
    </g>
</svg>